# xmcd
#
# Track frame offsets:
#	187
#	14167
#	34235
#	51340
#	67490
#	80200
#	95722
#	113100
#	128875
#	146202
#
# Disc length: 2147 seconds
#
# Revision: 1
# Processed by: cddbd v1.5.2PL0 Copyright (c) Steve Scherf et al.
# Submitted via: audiograbber 1.83.01
#
DISCID=a408610a
DTITLE=Dene Anton - Texas Soul
DYEAR=1992
DGENRE=Oldies
TTITLE0=Almost Single
TTITLE1=Shoebox
TTITLE2=I Never Got To Touch You (But You Sure Touched Me)
TTITLE3=Thank God It's Monday (T.G.I.M.)
TTITLE4=I Just Can't Give Up You
TTITLE5=Do I Ever
TTITLE6=Instant Replay (In Super Slow Motion)
TTITLE7=Over Forty And Fightin'
TTITLE8=The Other Man
TTITLE9=Texas Soul
EXTD=
EXTT0=
EXTT1=
EXTT2=
EXTT3=
EXTT4=
EXTT5=
EXTT6=
EXTT7=
EXTT8=
EXTT9=
PLAYORDER=
